<?xml version="1.0" standalone="no"?>
<!DOCTYPE svg PUBLIC "-//W3C//DTD SVG 20010904//EN"
 "http://www.w3.org/TR/2001/REC-SVG-20010904/DTD/svg10.dtd">
<svg version="1.0" xmlns="http://www.w3.org/2000/svg"
 width="512.000000pt" height="512.000000pt" viewBox="0 0 512.000000 512.000000"
 preserveAspectRatio="xMidYMid meet">
<metadata>
Created by potrace 1.16, written by Peter Selinger 2001-2019
</metadata>
<g transform="translate(0.000000,512.000000) scale(0.100000,-0.100000)"
fill="#000000" stroke="none">
<path d="M151 4654 c-27 -34 -27 -74 0 -108 l20 -26 193 0 c106 0 218 -5 247
-10 67 -13 127 -53 156 -105 39 -72 120 -458 328 -1565 152 -809 212 -1109
230 -1147 34 -75 106 -147 184 -186 l66 -32 1195 0 1195 0 57 27 c71 33 146
102 180 165 14 27 197 505 407 1064 358 953 381 1019 381 1080 0 90 -42 161
-119 201 l-53 28 -1889 0 c-1039 0 -1889 2 -1889 4 0 32 -97 400 -115 435 -33
65 -103 134 -173 168 l-57 28 -261 3 -262 3 -21 -27z m4651 -801 c10 -9 18
-27 18 -41 0 -30 -730 -1984 -769 -2057 -18 -35 -41 -58 -75 -80 l-49 -30
-1146 -3 -1145 -2 -53 26 c-57 27 -94 68 -112 124 -7 19 -75 373 -152 785 -77
413 -142 758 -145 768 -5 16 30 17 630 17 623 0 636 0 656 20 27 27 27 93 0
120 -20 20 -33 20 -669 20 l-649 0 -31 164 c-17 89 -31 168 -31 175 0 8 463
11 1852 11 1709 0 1853 -1 1870 -17z"/>
<path d="M1802 1269 c-172 -21 -333 -163 -378 -333 -20 -74 -18 -193 5 -265
99 -318 499 -426 752 -202 159 140 197 395 86 583 -58 100 -202 200 -306 213
-25 3 -57 7 -71 9 -14 1 -54 -1 -88 -5z m158 -180 c107 -32 200 -157 200 -268
0 -89 -25 -147 -90 -213 -43 -43 -69 -60 -110 -72 -104 -31 -198 -12 -274 55
-72 63 -99 117 -104 208 -4 71 -2 80 30 141 35 68 101 128 162 148 43 14 141
14 186 1z"/>
<path d="M3613 1269 c-140 -17 -283 -123 -344 -253 -147 -314 73 -666 416
-666 129 0 241 48 330 141 196 205 170 528 -55 693 -97 72 -218 101 -347 85z
m210 -203 c98 -57 151 -148 151 -256 0 -82 -26 -143 -87 -203 -141 -142 -375
-101 -464 81 -23 47 -28 70 -27 127 0 81 24 136 83 198 89 95 236 117 344 53z"/>
</g>
</svg>
