<?xml version="1.0" standalone="no"?>
<!DOCTYPE svg PUBLIC "-//W3C//DTD SVG 20010904//EN"
 "http://www.w3.org/TR/2001/REC-SVG-20010904/DTD/svg10.dtd">
<svg version="1.0" xmlns="http://www.w3.org/2000/svg"
 width="512.000000pt" height="512.000000pt" viewBox="0 0 512.000000 512.000000"
 preserveAspectRatio="xMidYMid meet">
<metadata>
Created by potrace 1.16, written by Peter Selinger 2001-2019
</metadata>
<g transform="translate(0.000000,512.000000) scale(0.100000,-0.100000)"
fill="#000000" stroke="none">
<path d="M968 4461 c-145 -47 -269 -174 -312 -320 -24 -81 -24 -1001 0 -1082
43 -148 168 -274 315 -320 56 -18 98 -19 548 -19 415 0 495 2 542 16 148 43
274 168 320 315 18 56 19 98 19 549 0 451 -1 493 -19 549 -46 147 -172 272
-320 315 -47 14 -126 16 -545 15 -448 0 -496 -2 -548 -18z"/>
<path d="M3048 4461 c-145 -47 -269 -174 -312 -320 -24 -81 -24 -1001 0 -1082
43 -148 168 -274 315 -320 56 -18 98 -19 548 -19 415 0 495 2 542 16 148 43
274 168 320 315 18 56 19 98 19 549 0 451 -1 493 -19 549 -46 147 -172 272
-320 315 -47 14 -126 16 -545 15 -448 0 -496 -2 -548 -18z"/>
<path d="M968 2381 c-145 -47 -269 -174 -312 -320 -24 -81 -24 -1001 0 -1082
43 -148 168 -274 315 -320 56 -18 98 -19 548 -19 415 0 495 2 542 16 148 43
274 168 320 315 18 56 19 98 19 549 0 451 -1 493 -19 549 -46 147 -172 272
-320 315 -47 14 -126 16 -545 15 -448 0 -496 -2 -548 -18z"/>
<path d="M3048 2381 c-145 -47 -269 -174 -312 -320 -24 -81 -24 -1001 0 -1082
43 -148 168 -274 315 -320 56 -18 98 -19 548 -19 415 0 495 2 542 16 148 43
274 168 320 315 18 56 19 98 19 549 0 451 -1 493 -19 549 -46 147 -172 272
-320 315 -47 14 -126 16 -545 15 -448 0 -496 -2 -548 -18z"/>
</g>
</svg>
