<?xml version="1.0" standalone="no"?>
<!DOCTYPE svg PUBLIC "-//W3C//DTD SVG 20010904//EN"
 "http://www.w3.org/TR/2001/REC-SVG-20010904/DTD/svg10.dtd">
<svg version="1.0" xmlns="http://www.w3.org/2000/svg"
 width="512.000000pt" height="512.000000pt" viewBox="0 0 512.000000 512.000000"
 preserveAspectRatio="xMidYMid meet">
<metadata>
Created by potrace 1.16, written by Peter Selinger 2001-2019
</metadata>
<g transform="translate(0.000000,512.000000) scale(0.100000,-0.100000)"
fill="#000000" stroke="none">
<path d="M1293 4022 c-63 -22 -115 -61 -154 -115 -62 -86 -60 -24 -57 -1368
l3 -1224 28 -57 c32 -65 89 -121 156 -152 45 -21 57 -21 652 -24 483 -2 608 0
617 10 16 21 28 953 12 973 -10 12 -44 15 -193 15 l-180 0 7 46 c3 26 6 107 6
180 l0 134 180 0 c167 0 180 1 190 19 6 12 10 102 10 223 0 229 12 306 61 406
96 197 316 278 662 245 l67 -6 0 -52 c0 -28 -3 -99 -6 -157 l-7 -106 -136 -4
c-176 -5 -227 -28 -266 -121 -20 -48 -22 -419 -2 -435 7 -6 92 -11 199 -14
102 -1 190 -6 193 -10 4 -4 -4 -82 -17 -175 l-23 -168 -169 -3 c-104 -1 -175
-7 -183 -13 -20 -17 -19 -961 1 -978 10 -9 126 -11 438 -9 408 3 425 4 469 24
67 31 124 87 156 152 l28 57 0 1245 0 1245 -21 46 c-31 67 -87 124 -152 156
l-57 28 -1230 2 c-1160 2 -1233 1 -1282 -15z m2527 -88 c53 -25 103 -78 121
-131 12 -31 14 -254 14 -1243 0 -1315 3 -1247 -58 -1317 -64 -72 -65 -73 -501
-73 l-389 0 6 187 c4 104 7 290 7 416 l0 227 169 0 c113 0 172 4 177 11 8 14
64 412 64 460 0 24 -5 39 -16 43 -9 3 -104 6 -211 6 l-195 0 6 31 c3 17 6 92
6 165 0 134 0 134 29 166 l29 33 169 5 c167 5 168 5 180 30 7 16 12 101 14
238 3 178 1 215 -11 222 -8 6 -112 10 -231 10 -181 0 -228 -3 -291 -19 -196
-50 -316 -156 -381 -337 -35 -96 -47 -196 -47 -380 l0 -154 -168 0 c-119 0
-173 -4 -185 -13 -16 -11 -18 -39 -20 -262 l-2 -250 186 -3 185 -2 -3 -363
c-2 -199 -6 -386 -9 -415 l-5 -52 -562 0 c-629 0 -608 -2 -674 73 -61 70 -58
2 -58 1317 0 1313 -3 1248 58 1316 36 42 78 65 132 75 22 4 575 6 1230 5 1183
-1 1190 -1 1235 -22z"/>
<path d="M1381 3496 c-8 -9 -10 -170 -9 -581 3 -528 4 -569 21 -579 12 -8 22
-8 35 0 16 10 17 51 20 584 2 452 0 575 -10 582 -20 12 -44 10 -57 -6z"/>
<path d="M1375 2127 c-3 -7 -4 -60 -3 -118 l3 -104 35 0 35 0 0 115 0 115 -33
3 c-20 2 -34 -2 -37 -11z"/>
</g>
</svg>
