<?xml version="1.0" standalone="no"?>
<!DOCTYPE svg PUBLIC "-//W3C//DTD SVG 20010904//EN"
 "http://www.w3.org/TR/2001/REC-SVG-20010904/DTD/svg10.dtd">
<svg version="1.0" xmlns="http://www.w3.org/2000/svg"
 width="512.000000pt" height="512.000000pt" viewBox="0 0 512.000000 512.000000"
 preserveAspectRatio="xMidYMid meet">
<metadata>
Created by potrace 1.16, written by Peter Selinger 2001-2019
</metadata>
<g transform="translate(0.000000,512.000000) scale(0.100000,-0.100000)"
fill="#000000" stroke="none">
<path d="M1738 4030 c-242 -42 -474 -221 -582 -450 -74 -157 -71 -111 -71
-1020 0 -913 -4 -863 74 -1025 98 -207 297 -371 521 -432 60 -17 130 -18 880
-18 914 0 863 -4 1026 75 163 79 295 211 374 374 79 163 75 112 75 1026 0 913
4 863 -74 1025 -76 161 -220 303 -381 379 -157 74 -105 70 -995 72 -440 1
-821 -2 -847 -6z m1692 -99 c252 -76 429 -256 502 -506 l23 -80 0 -785 0 -785
-23 -80 c-73 -253 -254 -434 -507 -507 l-80 -23 -785 0 -785 0 -80 23 c-253
73 -434 254 -507 507 l-23 80 0 785 c0 717 2 791 18 850 23 87 86 212 142 282
103 131 280 232 450 257 33 5 402 8 820 7 760 -2 760 -2 835 -25z"/>
<path d="M3424 3531 c-32 -14 -64 -60 -64 -93 0 -95 102 -142 172 -79 65 58
33 165 -53 176 -18 3 -44 1 -55 -4z"/>
<path d="M2455 3279 c-230 -35 -439 -186 -538 -389 -62 -127 -80 -201 -80
-330 0 -129 18 -203 80 -330 38 -79 61 -110 132 -181 71 -71 102 -94 181 -132
127 -62 201 -80 330 -80 129 0 203 18 330 80 135 66 247 178 313 313 62 127
80 201 80 330 0 129 -18 203 -80 330 -38 79 -61 110 -132 181 -71 71 -102 94
-181 132 -52 26 -121 53 -153 61 -77 20 -208 27 -282 15z m259 -99 c129 -33
200 -74 296 -170 96 -96 138 -169 170 -297 87 -337 -123 -686 -466 -773 -146
-38 -306 -19 -452 52 -93 45 -225 178 -270 270 -94 193 -94 403 0 596 45 92
178 225 270 270 146 71 306 90 452 52z"/>
<path d="M1332 3068 c-9 -9 -12 -82 -12 -268 0 -269 2 -280 45 -280 43 0 45
11 45 280 0 269 -2 280 -45 280 -12 0 -26 -5 -33 -12z"/>
<path d="M1332 2388 c-14 -14 -16 -175 -3 -197 5 -7 21 -13 36 -13 38 0 45 15
45 113 0 90 -8 109 -45 109 -12 0 -26 -5 -33 -12z"/>
</g>
</svg>
