<?xml version="1.0" standalone="no"?>
<!DOCTYPE svg PUBLIC "-//W3C//DTD SVG 20010904//EN"
 "http://www.w3.org/TR/2001/REC-SVG-20010904/DTD/svg10.dtd">
<svg version="1.0" xmlns="http://www.w3.org/2000/svg"
 width="500.000000pt" height="500.000000pt" viewBox="0 0 500.000000 500.000000"
 preserveAspectRatio="xMidYMid meet">
<metadata>
Created by potrace 1.16, written by Peter Selinger 2001-2019
</metadata>
<g transform="translate(0.000000,500.000000) scale(0.100000,-0.100000)"
fill="#000000" stroke="none">
<path d="M1100 2951 l0 -1618 278 -7 c391 -10 2076 -36 2320 -36 l202 0 0 530
0 530 -320 0 -320 0 0 -236 0 -237 -467 7 c-258 3 -600 9 -760 12 l-293 7 0
1043 0 1044 320 0 320 0 0 290 0 290 -640 0 -640 0 0 -1619z"/>
<path d="M3260 3040 l0 -300 320 0 320 0 0 300 0 300 -320 0 -320 0 0 -300z"/>
<path d="M1100 620 l0 -160 1400 0 1400 0 0 160 0 160 -1400 0 -1400 0 0 -160z"/>
</g>
</svg>
