<?xml version="1.0" standalone="no"?>
<!DOCTYPE svg PUBLIC "-//W3C//DTD SVG 20010904//EN"
 "http://www.w3.org/TR/2001/REC-SVG-20010904/DTD/svg10.dtd">
<svg version="1.0" xmlns="http://www.w3.org/2000/svg"
 width="512.000000pt" height="512.000000pt" viewBox="0 0 512.000000 512.000000"
 preserveAspectRatio="xMidYMid meet">
<metadata>
Created by potrace 1.16, written by Peter Selinger 2001-2019
</metadata>
<g transform="translate(0.000000,512.000000) scale(0.100000,-0.100000)"
fill="#000000" stroke="none">
<path d="M2288 4238 c-67 -39 -70 -52 -66 -325 l3 -242 30 -31 c16 -16 46 -35
66 -40 24 -7 433 -9 1156 -8 l1120 3 36 28 c54 41 59 70 55 324 -3 206 -4 224
-24 250 -11 15 -36 36 -55 45 -32 17 -107 18 -1159 18 l-1125 0 -37 -22z"/>
<path d="M1393 2870 c-66 -40 -68 -48 -68 -310 0 -262 2 -270 68 -310 31 -19
60 -20 1167 -20 1107 0 1136 1 1167 20 66 40 68 48 68 310 0 262 -2 270 -68
310 -31 19 -60 20 -1167 20 -1107 0 -1136 -1 -1167 -20z"/>
<path d="M535 1523 c-38 -9 -84 -53 -95 -91 -7 -24 -10 -117 -8 -259 3 -206 4
-224 24 -250 11 -15 36 -36 55 -45 32 -17 108 -18 1158 -18 l1123 0 38 21 c69
39 72 53 68 326 l-3 242 -29 30 c-17 17 -46 36 -65 41 -36 10 -2225 13 -2266
3z"/>
</g>
</svg>
