<?xml version="1.0" standalone="no"?>
<!DOCTYPE svg PUBLIC "-//W3C//DTD SVG 20010904//EN"
 "http://www.w3.org/TR/2001/REC-SVG-20010904/DTD/svg10.dtd">
<svg version="1.0" xmlns="http://www.w3.org/2000/svg"
 width="512.000000pt" height="512.000000pt" viewBox="0 0 512.000000 512.000000"
 preserveAspectRatio="xMidYMid meet">
<metadata>
Created by potrace 1.16, written by Peter Selinger 2001-2019
</metadata>
<g transform="translate(0.000000,512.000000) scale(0.100000,-0.100000)"
fill="#000000" stroke="none">
<path d="M2410 4233 c-404 -42 -753 -206 -1035 -488 -60 -61 -140 -153 -178
-205 -76 -107 -194 -337 -231 -450 -243 -740 49 -1546 709 -1957 109 -68 225
-123 259 -123 34 0 42 20 50 124 10 126 14 142 147 709 l119 508 -21 82 c-57
223 18 413 179 456 59 16 121 -11 146 -64 36 -75 26 -147 -68 -480 -42 -147
-42 -194 -1 -275 46 -91 120 -133 235 -133 60 -1 87 5 132 25 152 70 269 250
319 493 24 115 26 325 4 410 -47 182 -172 311 -359 371 -118 39 -307 45 -426
15 -323 -81 -530 -347 -530 -681 0 -115 16 -177 65 -244 27 -38 35 -59 35 -91
0 -35 -15 -100 -26 -114 -8 -9 -94 52 -131 92 -141 153 -171 416 -77 665 89
238 326 440 599 511 169 45 377 47 535 6 220 -57 422 -217 514 -407 112 -231
99 -544 -34 -808 -136 -269 -356 -412 -615 -398 -102 5 -189 44 -254 113 -47
50 -73 56 -95 23 -8 -13 -47 -150 -86 -306 -72 -286 -131 -474 -176 -564 -36
-70 -30 -99 22 -114 147 -42 406 -63 576 -45 516 53 958 316 1243 741 209 312
310 697 277 1062 -7 73 -19 167 -28 208 -45 213 -154 460 -282 640 -86 121
-261 296 -382 383 -105 75 -334 192 -450 231 -205 68 -478 100 -680 79z m494
-117 c558 -129 996 -525 1170 -1058 59 -183 71 -266 71 -503 -1 -205 -3 -228
-29 -339 -54 -232 -142 -425 -276 -605 -232 -314 -567 -527 -957 -612 -143
-30 -405 -37 -558 -14 -63 9 -117 21 -120 25 -3 5 8 43 25 85 38 95 87 263
140 475 23 91 46 182 51 204 l10 38 22 -19 c86 -77 237 -114 386 -93 261 36
449 180 581 445 78 157 101 256 107 460 5 150 3 180 -16 260 -78 326 -358 572
-716 630 -240 39 -534 -6 -721 -110 -281 -157 -446 -396 -483 -700 -17 -143
10 -309 69 -426 60 -117 186 -219 271 -219 63 0 83 22 104 113 19 82 13 138
-20 193 -71 117 -70 113 -69 219 1 186 53 316 173 435 158 156 348 214 571
176 207 -36 333 -131 391 -297 33 -92 33 -305 1 -433 -79 -315 -277 -492 -452
-403 -59 29 -90 76 -90 137 0 26 20 115 45 200 94 320 98 423 23 515 -45 54
-101 79 -178 79 -131 0 -233 -87 -286 -244 -25 -74 -25 -231 0 -316 l18 -61
-116 -489 c-113 -480 -146 -641 -146 -717 l0 -37 -62 31 c-405 203 -711 586
-823 1028 -38 151 -48 257 -43 446 7 254 51 431 164 660 212 431 630 751 1101
845 145 29 142 28 353 26 172 -3 209 -6 314 -30z"/>
<path d="M2363 3951 c-47 -8 -73 -26 -73 -51 0 -38 23 -43 135 -30 112 14 131
24 121 65 -6 24 -10 25 -74 24 -37 -1 -86 -5 -109 -8z"/>
<path d="M2074 3876 c-127 -46 -276 -127 -379 -203 -79 -60 -86 -68 -83 -97 4
-45 46 -48 93 -7 95 83 270 180 426 234 97 34 122 54 103 85 -17 27 -62 24
-160 -12z"/>
</g>
</svg>
