<?xml version="1.0" standalone="no"?>
<!DOCTYPE svg PUBLIC "-//W3C//DTD SVG 20010904//EN"
 "http://www.w3.org/TR/2001/REC-SVG-20010904/DTD/svg10.dtd">
<svg version="1.0" xmlns="http://www.w3.org/2000/svg"
 width="512.000000pt" height="512.000000pt" viewBox="0 0 512.000000 512.000000"
 preserveAspectRatio="xMidYMid meet">
<metadata>
Created by potrace 1.16, written by Peter Selinger 2001-2019
</metadata>
<g transform="translate(0.000000,512.000000) scale(0.100000,-0.100000)"
fill="#000000" stroke="none">
<path d="M1790 4944 c-407 -62 -776 -249 -1070 -544 -298 -298 -484 -667 -545
-1081 -20 -140 -20 -418 0 -558 61 -414 247 -783 545 -1081 294 -294 671 -485
1077 -544 145 -21 420 -21 562 -1 344 51 684 201 940 416 39 32 74 59 79 59 4
0 68 -60 141 -134 l134 -134 -24 -54 c-21 -46 -24 -68 -24 -168 0 -182 -7
-171 383 -563 395 -396 389 -392 572 -392 104 0 121 3 172 27 80 37 152 107
191 187 30 62 32 71 32 181 0 182 7 172 -378 558 -269 270 -332 328 -382 353
-111 55 -242 60 -357 14 l-56 -22 -136 136 c-75 75 -136 140 -136 144 0 4 27
39 59 78 215 256 365 596 416 940 20 142 20 417 -1 562 -100 688 -576 1276
-1233 1523 -100 38 -273 81 -392 99 -134 19 -437 19 -569 -1z m508 -165 c508
-58 991 -368 1269 -814 439 -704 325 -1611 -273 -2185 -365 -350 -825 -519
-1332 -488 -863 51 -1579 767 -1630 1630 -32 529 157 1016 534 1378 390 375
888 541 1432 479z m1777 -3440 c33 -9 92 -62 359 -327 208 -208 325 -331 337
-357 39 -84 17 -196 -52 -262 -67 -63 -173 -82 -254 -44 -55 26 -659 632 -680
683 -20 50 -19 134 4 183 50 107 165 157 286 124z"/>
<path d="M3460 3100 c-13 -13 -20 -33 -20 -60 0 -27 7 -47 20 -60 13 -13 33
-20 60 -20 27 0 47 7 60 20 13 13 20 33 20 60 0 27 -7 47 -20 60 -13 13 -33
20 -60 20 -27 0 -47 -7 -60 -20z"/>
<path d="M3425 2700 c-30 -12 -41 -28 -66 -100 -59 -172 -180 -367 -311 -500
-241 -243 -518 -370 -884 -404 -154 -14 -164 -19 -164 -91 0 -78 38 -91 213
-76 548 50 1013 370 1243 856 97 205 107 277 43 310 -31 17 -45 18 -74 5z"/>
</g>
</svg>
