<?xml version="1.0" standalone="no"?>
<!DOCTYPE svg PUBLIC "-//W3C//DTD SVG 20010904//EN"
 "http://www.w3.org/TR/2001/REC-SVG-20010904/DTD/svg10.dtd">
<svg version="1.0" xmlns="http://www.w3.org/2000/svg"
 width="512.000000pt" height="512.000000pt" viewBox="0 0 512.000000 512.000000"
 preserveAspectRatio="xMidYMid meet">
<metadata>
Created by potrace 1.16, written by Peter Selinger 2001-2019
</metadata>
<g transform="translate(0.000000,512.000000) scale(0.100000,-0.100000)"
fill="#000000" stroke="none">
<path d="M3011 3654 c-71 -15 -188 -67 -253 -112 -66 -46 -159 -145 -201 -214
-57 -95 -79 -178 -75 -288 l3 -91 -50 6 c-247 31 -486 118 -690 252 -118 78
-257 195 -335 283 -71 80 -91 85 -127 32 -28 -42 -61 -131 -74 -196 -29 -153
15 -325 120 -465 23 -30 41 -56 41 -58 0 -3 -98 35 -113 44 -4 2 -20 2 -34 -2
l-26 -6 5 -92 c11 -200 120 -385 282 -478 l50 -28 -56 6 c-50 5 -57 3 -68 -16
-10 -19 -6 -33 23 -94 80 -168 207 -287 365 -343 35 -12 65 -24 68 -26 8 -8
-178 -95 -249 -117 -111 -34 -234 -53 -382 -60 -136 -6 -140 -7 -143 -29 -5
-34 12 -49 112 -99 170 -86 378 -153 578 -188 249 -44 516 -22 793 65 134 42
359 154 475 237 246 176 443 437 569 753 82 204 114 350 127 582 l7 113 41 34
c102 86 236 249 236 289 0 11 -7 26 -16 33 -13 11 -28 9 -92 -14 -43 -15 -80
-27 -84 -27 -4 0 17 36 47 80 76 111 93 180 50 196 -9 4 -61 -14 -115 -40 -55
-25 -133 -56 -174 -68 l-74 -21 -56 50 c-133 118 -312 159 -505 117z m247 -74
c74 -17 134 -52 204 -118 l68 -65 50 7 c28 4 93 22 144 40 l95 32 -20 -28
c-20 -28 -89 -96 -143 -141 -24 -19 -28 -29 -22 -50 6 -25 10 -27 64 -27 31 0
84 7 117 14 l59 14 -69 -67 c-39 -37 -84 -78 -101 -91 l-32 -25 -11 -160 c-14
-189 -38 -315 -87 -456 -202 -587 -622 -960 -1224 -1091 -88 -19 -136 -22
-300 -23 -167 0 -211 3 -305 23 -112 24 -318 88 -390 121 l-40 18 60 7 c232
27 450 108 604 222 45 34 51 43 49 69 -3 29 -4 29 -88 42 -155 24 -296 115
-382 248 l-39 60 86 7 c110 10 140 23 140 63 0 27 -4 31 -75 55 -135 45 -234
119 -302 224 -38 59 -78 167 -78 211 l0 23 61 -19 c83 -26 175 -26 189 0 5 11
10 22 10 26 0 3 -29 36 -65 72 -128 130 -186 245 -193 385 -3 69 0 101 17 157
12 39 24 71 28 71 3 0 49 -42 102 -92 53 -51 139 -123 191 -161 177 -126 435
-240 637 -282 88 -18 277 -36 297 -29 24 9 26 31 10 97 -11 43 -15 84 -11 131
24 286 406 552 695 486z"/>
<path d="M3371 2498 c-4 -13 -18 -49 -29 -80 -28 -74 -84 -186 -133 -264 -22
-34 -39 -66 -39 -71 0 -5 9 -18 20 -28 31 -28 59 -8 114 85 87 147 157 326
143 363 -10 27 -66 22 -76 -5z"/>
<path d="M3072 1983 c-11 -10 -37 -37 -57 -61 -34 -38 -37 -45 -27 -67 18 -39
51 -32 105 23 52 53 62 93 28 112 -25 13 -25 13 -49 -7z"/>
</g>
</svg>
